<?xml version="1.0" encoding="utf-8"?>
<!-- Generator: Adobe Illustrator 16.0.0, SVG Export Plug-In . SVG Version: 6.00 Build 0)  -->
<!DOCTYPE svg PUBLIC "-//W3C//DTD SVG 1.1//EN" "http://www.w3.org/Graphics/SVG/1.1/DTD/svg11.dtd">
<svg version="1.1" id="Layer_1" xmlns="http://www.w3.org/2000/svg" xmlns:xlink="http://www.w3.org/1999/xlink" x="0px" y="0px"
	 width="50px" height="50px" viewBox="0 0 50 50" enable-background="new 0 0 50 50" xml:space="preserve">
<g>
	<path d="M39.033,16.247c-2.319-4.019-7.477-5.399-11.494-3.08L9.843,23.384l8.414,14.574l17.696-10.217
		C39.971,25.422,41.353,20.265,39.033,16.247z M35.353,26.699l-16.655,9.616l-7.212-12.491l16.654-9.616
		c3.444-1.988,7.864-0.804,9.852,2.64C39.98,20.292,38.796,24.712,35.353,26.699z"/>
	<path d="M28.741,15.249l-15.614,9.015l6.011,10.41l15.613-9.015c2.875-1.66,3.859-5.336,2.2-8.21
		C35.291,14.574,31.615,13.59,28.741,15.249z M22.831,28.405l-1.836-1.104c-0.511-0.306-1.097-0.689-1.588-1.063l-0.015,0.018
		c0.346,0.541,0.699,1.127,1.096,1.813l0.732,1.268l-0.875,0.505l-2.428-4.207l1.11-0.643l1.764,1.038
		c0.506,0.3,1.059,0.68,1.52,1.045l0.019-0.011c-0.383-0.519-0.729-1.076-1.093-1.707l-0.71-1.229L21.4,23.62l2.43,4.209
		L22.831,28.405z M24.655,27.353l-2.429-4.208l2.597-1.499l0.45,0.78l-1.641,0.947l0.503,0.874l1.549-0.894l0.447,0.774
		l-1.549,0.894l0.577,0.999l1.729-0.999l0.45,0.78L24.655,27.353z M30.968,23.707l-1.4-1.604c-0.325-0.378-0.622-0.73-0.949-1.184
		l-0.012,0.007c0.198,0.519,0.36,0.958,0.506,1.439l0.645,2.041l-1.041,0.603l-3.429-3.631l1.017-0.588l1.321,1.551
		c0.382,0.446,0.782,0.94,1.097,1.323l0.013-0.007c-0.194-0.495-0.387-1.059-0.58-1.638l-0.639-1.929l1.011-0.584l1.361,1.579
		c0.378,0.438,0.706,0.849,1.039,1.28l0.013-0.008c-0.209-0.505-0.399-1.052-0.6-1.601l-0.652-1.921l0.969-0.56l1.342,4.836
		L30.968,23.707z M35.152,19.991c-0.623,0.361-1.42,0.147-1.779-0.477c-0.359-0.622-0.146-1.419,0.477-1.778
		c0.622-0.358,1.419-0.146,1.778,0.476C35.988,18.836,35.775,19.633,35.152,19.991z"/>
</g>
</svg>
